<svg xmlns="http://www.w3.org/2000/svg" viewBox="0 0 231.69 67.22"><defs><style>.cls-1{fill:#ef8322;}.cls-2{fill:#d95d73;}.cls-3{fill:#994055;}.cls-4{fill:#fff;}.cls-5{fill:#5d6771;}</style></defs><title>Fichier 7</title><g id="Calque_2" data-name="Calque 2"><g id="Calque_1-2" data-name="Calque 1"><path class="cls-1" d="M16.33,31.56,17.84,7.35c.27-4.26,3.42-7.56,7-7.34L62.12,6.87c3.6.23,5.71,4,6.6,8.19L71.3,35c-.27,4.26-3.43,7.57-7,7.34l-41.9-2.61c-3.59-.23-6.32-3.9-6.05-8.16"/><path class="cls-2" d="M64,35.2V59.46a7.71,7.71,0,0,1-7.61,7.76L12.68,62.69c-4.19,0-6.91-3.67-8.24-7.76L0,35.2a7.7,7.7,0,0,1,7.61-7.76l48.48-4.61C63.79,21.49,64,30.93,64,35.2"/><path class="cls-3" d="M47.34,54.79,36.7,57.4a7.62,7.62,0,0,1-3.81-.4c-1.41-.76-4.92-1.14-7.56-1.9s-17.2-5.73-17.48-.91c0,.47,1.67,7.35,1.7,7.71a6.63,6.63,0,0,0,3.13.78l43.74,4.53a7.37,7.37,0,0,0,.82,0c-3.45-6.59-9.9-12.37-9.9-12.37"/><path class="cls-4" d="M58.41,29.53c5.41-3.72,6.17-8.31,6.55-11.42.41-3.41-.54-6.07-1.36-6.87-3.61-3.58-24.67-3.4-29.87-2-5.36,1.42-7.76,2.14-8.26,3a.67.67,0,0,0-.08.51c.15.54,1.49.3,4.77-.44,4-.9,5.52-1.08,5.88-.69l.05.08a.34.34,0,0,1,0,.34c-.24.44-1.36.7-3.67,1.14a52.92,52.92,0,0,0-5.58,1.28c-2.63.78-3.95,1.57-4,2.4a1.06,1.06,0,0,0,.6,1l.05,0,.05,0c.4-.12,5.8-1.23,11.3-2.36l1.78-.37c1.71-.21.66.5.66.5a10,10,0,0,1-1.71.81c-1.19.46-3.2,1-5.32,1.57-5.39,1.46-9.55,2.68-10.16,4a.69.69,0,0,0,0,.61c.48,1.1,3.79.19,9.18-1.39,4.62-1.36,9.85-2.81,12.26-2.32,1,.19.68.61.68.61-.52.56-3.21,1.43-6.41,2.43-3.53,1.1-7.17,2.24-8.47,3.33S26,26.74,26.11,27c.2.47,1.11.53,1.9.44l3.24-.67a116.72,116.72,0,0,1,14-2.36c2.89-.19,5,.07,5.78,1.16.58.83.31,2.14-.79,3.9-2.56,4.11-8.73,4.74-5.65,6.7,1.94,1.24,6.91-1.91,13.8-6.64"/><path class="cls-4" d="M12.92,39.53c-5.2,4-5.72,8.63-5.93,11.75-.23,3.43.87,6,1.72,6.79,3.81,3.38,24.82,2.07,29.94.41,5.27-1.7,7.63-2.54,8.09-3.45a.65.65,0,0,0,0-.51c-.18-.53-1.51-.21-4.74.69-4,1.12-5.45,1.38-5.84,1l-.05-.07a.38.38,0,0,1,0-.34c.22-.46,1.32-.77,3.61-1.34a54.76,54.76,0,0,0,5.5-1.58c2.58-.92,3.86-1.78,3.9-2.61a1.07,1.07,0,0,0-.66-.93l-.05,0,0,0c-.39.14-5.72,1.54-11.15,3l-1.76.46c-1.7.31-.68-.46-.68-.46a8.88,8.88,0,0,1,1.66-.89c1.17-.53,3.14-1.18,5.23-1.87,5.3-1.74,9.39-3.18,9.93-4.48a.69.69,0,0,0,0-.61c-.54-1.07-3.8,0-9.09,1.88-4.55,1.6-9.69,3.33-12.13,3-1-.15-.71-.58-.71-.58.5-.58,3.13-1.6,6.27-2.77,3.47-1.29,7-2.62,8.28-3.77s1.2-1.62,1.08-1.88c-.23-.46-1.14-.47-1.92-.33l-3.2.84a118,118,0,0,1-13.88,3.11c-2.88.34-5,.19-5.84-.86-.61-.79-.42-2.11.58-3.93,2.34-4.25,8.47-5.2,5.29-7-2-1.14-6.8,2.28-13.42,7.37"/><path class="cls-5" d="M226.67,21.89a5.09,5.09,0,0,1-3.61-1.31,4.24,4.24,0,0,1-1.41-3.22,4.08,4.08,0,0,1,1.41-3.2,5.9,5.9,0,0,1,7.24,0,4.09,4.09,0,0,1,1.39,3.2,4.21,4.21,0,0,1-1.39,3.26,5.17,5.17,0,0,1-3.63,1.27"/><polygon class="cls-5" points="117.36 53.61 93.63 53.61 93.63 14.03 116.45 14.03 116.45 21.29 102.54 21.29 102.54 30.09 115.49 30.09 115.49 37.33 102.54 37.33 102.54 46.38 117.36 46.38 117.36 53.61"/><rect class="cls-5" x="222.26" y="25.35" width="8.72" height="28.26"/><path class="cls-5" d="M150.16,53.61h-8.7V37.91q0-6.57-4.69-6.57A4.67,4.67,0,0,0,133,33.08a6.64,6.64,0,0,0-1.46,4.41V53.61h-8.72V25.35h8.72v4.47h.11a10,10,0,0,1,9.08-5.16q9.39,0,9.39,11.65Z"/><path class="cls-5" d="M184,25.35,173.45,53.61h-9.93l-10-28.26h9.33l4.91,17.41a26.31,26.31,0,0,1,1,5h.11a28.71,28.71,0,0,1,1-4.86l5-17.58Z"/><path class="cls-5" d="M201.39,31.34a5.86,5.86,0,0,0-4.81,2.12,9.4,9.4,0,0,0-1.71,6q0,8.15,6.57,8.14,6.27,0,6.27-8.36,0-7.92-6.32-7.92m-.22,23q-7.06,0-11.11-4T186,39.59q0-7,4.2-11t11.34-4q7,0,11,4a14.07,14.07,0,0,1,4,10.47c0,4.7-1.38,8.4-4.13,11.13S206,54.3,201.17,54.3"/></g></g></svg>